<svg xmlns:xlink="http://www.w3.org/1999/xlink" xmlns="http://www.w3.org/2000/svg" class="MuiSvgIcon-root MuiSvgIcon-fontSizeMedium MuiSvgIcon-root MuiSvgIcon-fontSizeLarge css-zjt8k" focusable="false" aria-hidden="true" viewBox="0 0 24 24" data-testid="CenterFocusWeakIcon" tabindex="-1" title="CenterFocusWeak" width="67" height="67"><path d="M5 15H3v4c0 1.1.9 2 2 2h4v-2H5v-4zM5 5h4V3H5c-1.1 0-2 .9-2 2v4h2V5zm14-2h-4v2h4v4h2V5c0-1.1-.9-2-2-2zm0 16h-4v2h4c1.1 0 2-.9 2-2v-4h-2v4zM12 8c-2.21 0-4 1.79-4 4s1.79 4 4 4 4-1.79 4-4-1.79-4-4-4zm0 6c-1.1 0-2-.9-2-2s.9-2 2-2 2 .9 2 2-.9 2-2 2z" fill-opacity="0.87" fill="#F57930"></path></svg>